<svg xmlns="http://www.w3.org/2000/svg" width="300" height="300" fill="none" viewBox="0 0 300 300" id="color-wheel">
  <path fill="#470099" d="M263 150C263 169.828 257.783 189.306 247.873 206.48L169.575 161.296C171.557 157.861 172.6 153.966 172.6 150H263Z"></path>
  <path fill="#FFE108" d="M37 150C37 169.828 42.2171 189.306 52.1273 206.48L130.425 161.296C128.443 157.861 127.4 153.966 127.4 150H37Z"></path>
  <path fill="#0051D4" d="M247.861 206.5C237.947 223.671 223.69 237.932 206.52 247.849L161.304 169.57C164.738 167.586 167.589 164.734 169.572 161.3L247.861 206.5Z"></path>
  <path fill="#68CB00" d="M52.1391 206.5C62.0529 223.671 76.3104 237.932 93.4795 247.849L138.696 169.57C135.262 167.586 132.411 164.734 130.428 161.3L52.1391 206.5Z"></path>
  <path fill="#0FB4C3" d="M206.5 247.861C189.329 257.775 169.851 262.996 150.024 263L150.005 172.6C153.97 172.599 157.866 171.555 161.3 169.572L206.5 247.861Z"></path>
  <path fill="#019A00" d="M93.5 247.861C110.671 257.775 130.149 262.996 149.976 263L149.995 172.6C146.03 172.599 142.134 171.555 138.7 169.572L93.5 247.861Z"></path>
  <path fill="#7C0499" d="M263 150C263 130.172 257.783 110.694 247.873 93.5205L169.575 138.704C171.557 142.139 172.6 146.034 172.6 150H263Z"></path>
  <path fill="#F7A500" d="M37 150C37 130.172 42.2171 110.694 52.1273 93.5205L130.425 138.704C128.443 142.139 127.4 146.034 127.4 150H37Z"></path>
  <path fill="#C905AD" d="M247.861 93.5C237.947 76.3288 223.69 62.0684 206.52 52.151L161.304 130.43C164.738 132.414 167.589 135.266 169.572 138.7L247.861 93.5Z"></path>
  <path fill="#FF7F00" d="M52.1391 93.5C62.0529 76.3288 76.3104 62.0684 93.4795 52.151L138.696 130.43C135.262 132.414 132.411 135.266 130.428 138.7L52.1391 93.5Z"></path>
  <path fill="#FC001F" d="M206.5 52.1391C189.329 42.2253 169.851 37.0042 150.024 37L150.005 127.4C153.97 127.401 157.866 128.445 161.3 130.428L206.5 52.1391Z"></path>
  <path fill="#ED5603" d="M93.5 52.1391C110.671 42.2253 130.149 37.0042 149.976 37L149.995 127.4C146.03 127.401 142.134 128.445 138.7 130.428L93.5 52.1391Z"></path>
  <path fill="#fff" fill-opacity=".35" d="M263 150C263 212.408 212.408 263 150 263C87.5918 263 37 212.408 37 150C37 87.5918 87.5918 37 150 37C212.408 37 263 87.5918 263 150ZM82.2 150C82.2 187.445 112.555 217.8 150 217.8C187.445 217.8 217.8 187.445 217.8 150C217.8 112.555 187.445 82.2 150 82.2C112.555 82.2 82.2 112.555 82.2 150Z"></path>
</svg>
